<svg width="16" height="30" viewBox="0 0 16 30" fill="none" xmlns="http://www.w3.org/2000/svg">
<path d="M0.328132 15.8233L13.649 29.6608C14.0854 30.1139 14.792 30.1131 15.2277 29.6584C15.6631 29.2038 15.662 28.4673 15.2255 28.0139L2.69754 14.9999L15.2259 1.98607C15.6624 1.5326 15.6635 0.7966 15.2282 0.341933C15.0098 0.114 14.7236 -8.21478e-07 14.4375 -7.96463e-07C14.1521 -7.71512e-07 13.8671 0.113199 13.649 0.339533L0.328132 14.1767C0.117956 14.3945 3.12717e-06 14.6911 3.15417e-06 14.9999C3.18118e-06 15.3089 0.118276 15.605 0.328132 15.8233Z" fill="#0C0701"/>
</svg>
