<svg width="42" height="42" viewBox="0 0 42 42" fill="none" xmlns="http://www.w3.org/2000/svg">
<rect x="0.5" y="0.5" width="41" height="41" fill="white" stroke="#0C0701"/>
<path d="M29.2114 24.2872V11H11.7882V24.2876L11.3328 30H29.6672L29.2114 24.2872ZM12.1645 29.2319L12.5543 24.3479L12.557 24.318V24.2873V11.7681H28.4433V24.2876V24.3184L28.446 24.3483L28.8358 29.2323H12.1645V29.2319ZM25.5002 13.9597C25.5002 14.1713 25.4073 14.3595 25.2621 14.4908C25.0958 16.9271 23.0662 18.8591 20.5893 18.8591C18.135 18.8591 16.1188 16.9627 15.9207 14.5587C15.7264 14.4301 15.5977 14.21 15.5977 13.9593C15.5977 13.5626 15.9191 13.2407 16.3162 13.2407C16.713 13.2407 17.0344 13.5626 17.0344 13.9593C17.0344 14.1559 16.9549 14.3341 16.827 14.4635C16.9775 16.4097 18.605 17.9481 20.5893 17.9481C22.5509 17.9481 24.1665 16.445 24.3482 14.5299C24.1754 14.3986 24.0621 14.1932 24.0621 13.9589C24.0621 13.5622 24.3839 13.24 24.781 13.24C25.1784 13.2408 25.5002 13.563 25.5002 13.9597Z" fill="#0C0701"/>
</svg>
