<svg width="132" height="54" viewBox="0 0 132 54" fill="none" xmlns="http://www.w3.org/2000/svg">
<path d="M67.89 37.9C67.89 35.69 68.36 33.52 69.3 31.38C70.24 29.24 71.47 27.39 72.98 25.81C74.49 24.23 76.25 22.91 78.25 21.86C80.25 20.81 82.29 20.18 84.37 19.99C85.12 19.92 85.8 19.89 86.39 19.89C86.99 19.89 87.51 19.92 87.98 19.99C89.56 20.19 90.96 20.58 92.17 21.15C92.22 21.17 92.26 21.2 92.3 21.23C92.34 21.26 92.39 21.28 92.43 21.28C92.47 21.3 92.52 21.34 92.58 21.38C92.64 21.42 92.7 21.46 92.73 21.48C93.23 21.81 93.57 22.04 93.73 22.18L93.76 22.21C94.43 22.76 94.96 23.35 95.34 23.97V24C96.37 25.48 96.97 27.37 97.13 29.67V29.77V29.8C97.15 30.04 97.13 30.3 97.07 30.56C97.01 30.83 96.87 31.15 96.68 31.54C96.48 31.93 96.12 32.25 95.57 32.5C95.02 32.75 94.34 32.88 93.52 32.88H71.9C71.81 33.61 71.77 34.49 71.77 35.5C71.77 39.44 73.27 42.78 76.28 45.5C79.29 48.22 82.96 49.59 87.29 49.59C90.87 49.59 93.92 48.61 96.44 46.65C98.96 44.69 101.14 41.83 102.97 38.09H103.5C101.02 43.53 97.76 47.6 93.72 50.29C93.63 50.36 93.5 50.43 93.32 50.52C90.4 52.38 87.31 53.31 84.03 53.31C80.27 53.31 77.02 52.38 74.28 50.53C72.25 49.16 70.67 47.38 69.55 45.19C68.43 43 67.89 40.57 67.89 37.9ZM71.97 32.45H90.21C90.72 32.45 91.16 32.26 91.54 31.89C91.92 31.51 92.1 31.07 92.1 30.56C92.08 28.19 91.6 26.27 90.67 24.79L90.64 24.76C89.93 23.63 88.99 22.77 87.82 22.17C87.79 22.15 87.77 22.13 87.73 22.1C87.7 22.08 87.67 22.07 87.65 22.07L87.15 21.87C86.09 21.49 85.02 21.31 83.96 21.31C81.37 21.31 79.12 21.93 77.2 23.17C75.28 24.41 73.85 26.24 72.92 28.68C72.92 28.7 72.91 28.73 72.89 28.78C72.8 28.98 72.66 29.41 72.46 30.07C72.17 30.98 72.03 31.61 72.03 31.96C72.03 32 72.02 32.08 72 32.19C71.98 32.3 71.97 32.38 71.97 32.45Z" fill="#0C0701"/>
<path d="M19.48 22.84V23.26C19.48 23.26 19.48 23.27 19.48 23.3C19.48 23.3 19.48 23.36 19.48 23.49C19.47 26.31 19.41 52.8 19.41 52.8H14.51C14.51 52.8 14.57 29.64 14.57 22.84V19.3C14.57 9.16999 11.95 4.64998 7.45 4.64998C4.82 4.64998 2.45 5.20999 0.529999 5.57999V0.86998C0.739999 0.85998 0.959993 0.859985 1.17999 0.859985C8.29999 0.859985 17.07 9.22998 19.09 19.29C19.3 20.3 19.48 22.84 19.48 22.84ZM58.35 32.55V52.77H53.31C53.37 50.7 53.38 48.55 53.38 47.28V31.9C53.38 23.8 49.53 21.25 45.53 21.25C41.48 21.25 38.79 23.02 35.72 27.06V52.77H30.78C30.81 50.67 30.82 48.45 30.82 47.15V2.21999C30.82 1.73999 30.81 1.31999 30.8 0.909988H35.72V26.2C39.06 21.89 42.72 19.28 47.69 19.28C53.58 19.29 58.35 22.28 58.35 32.55Z" fill="#0C0701"/>
<path d="M106.87 29.5C106.87 27.9 107.23 26.47 107.96 25.21C108.69 23.95 109.64 22.94 110.81 22.2C111.98 21.46 113.25 20.89 114.61 20.5C115.97 20.11 117.35 19.92 118.74 19.92C119.73 19.92 120.63 19.94 121.43 19.97C122.23 20 122.99 20.06 123.74 20.14C124.48 20.22 125.07 20.29 125.5 20.36C125.93 20.43 126.57 20.53 127.42 20.68C128.27 20.82 128.92 20.93 129.36 21L129.49 21.03H129.52L129.82 21.06V21.16V27.21C128.71 26.03 127.52 25 126.24 24.1C124.96 23.2 123.8 22.53 122.76 22.09C121.72 21.65 120.73 21.3 119.79 21.04C118.85 20.78 118.13 20.63 117.62 20.57C117.11 20.51 116.77 20.51 116.59 20.55L116.56 20.58C114.52 20.87 112.92 21.49 111.73 22.46C110.55 23.43 109.96 24.62 109.96 26.04C109.96 26.57 110.03 27.08 110.16 27.55C110.29 28.03 110.52 28.47 110.85 28.88C111.18 29.29 111.49 29.65 111.78 29.96C112.07 30.27 112.52 30.6 113.14 30.94C113.76 31.28 114.25 31.55 114.6 31.75C114.95 31.95 115.55 32.21 116.39 32.53C117.23 32.85 117.82 33.07 118.16 33.2C118.5 33.32 119.15 33.55 120.1 33.88C121.09 34.21 121.87 34.49 122.44 34.69C123 34.9 123.73 35.19 124.61 35.57C125.49 35.95 126.2 36.3 126.72 36.63C127.24 36.96 127.81 37.38 128.44 37.88C129.07 38.38 129.55 38.89 129.88 39.41C130.21 39.93 130.49 40.54 130.72 41.24C130.95 41.94 131.07 42.69 131.07 43.48C131.07 46.31 129.97 48.65 127.77 50.51C125.57 52.36 122.83 53.29 119.56 53.29C118.01 53.29 116.54 53.2 115.13 53.02C113.73 52.84 112.65 52.65 111.9 52.45C111.15 52.25 110.25 51.99 109.21 51.67C108.17 51.35 107.5 51.15 107.19 51.06C107.1 51.06 107.04 51.05 107.02 51.03V44.41C107.09 44.5 107.19 44.62 107.32 44.78C107.45 44.94 107.73 45.25 108.15 45.71C108.57 46.18 109.01 46.63 109.48 47.06C109.94 47.49 110.53 47.99 111.25 48.54C111.97 49.09 112.69 49.59 113.42 50.04C114.15 50.48 114.98 50.9 115.91 51.3C116.82 51.7 117.73 51.99 118.66 52.16C119.39 52.29 120.17 52.36 121.01 52.36C121.21 52.36 121.42 52.36 121.64 52.36C122.7 52.32 123.75 52.12 124.79 51.76C126.87 50.7 127.91 48.9 127.91 46.37C127.91 45.82 127.84 45.3 127.71 44.82C127.58 44.34 127.35 43.9 127.03 43.49C126.71 43.08 126.39 42.71 126.07 42.38C125.75 42.05 125.3 41.72 124.73 41.4C124.15 41.08 123.66 40.81 123.24 40.59C122.82 40.37 122.23 40.11 121.48 39.83C120.73 39.54 120.12 39.32 119.66 39.16C119.2 39 118.54 38.78 117.7 38.49C116.37 38.05 115.29 37.66 114.45 37.34C113.61 37.02 112.66 36.58 111.6 36.03C110.54 35.48 109.7 34.92 109.08 34.35C108.46 33.78 107.94 33.08 107.5 32.24C107.09 31.41 106.87 30.49 106.87 29.5Z" fill="#0C0701"/>
</svg>
