<svg width="42" height="42" viewBox="0 0 42 42" fill="none" xmlns="http://www.w3.org/2000/svg">
<path d="M40.2569 29.3718V0H1.74236V29.3727L0.735596 42H41.2644L40.2569 29.3718ZM2.57424 40.3022L3.43584 29.506L3.44178 29.4398V29.3719V1.69784H38.5589V29.3727V29.4406L38.5648 29.5068L39.4264 40.303H2.57424V40.3022ZM32.0531 6.5425C32.0531 7.01022 31.8477 7.42615 31.5268 7.71648C31.1592 13.1019 26.6727 17.3726 21.1973 17.3726C15.772 17.3726 11.3153 13.1808 10.8773 7.86666C10.4478 7.58228 10.1634 7.09581 10.1634 6.54157C10.1634 5.66465 10.8739 4.95324 11.7517 4.95324C12.6286 4.95324 13.3391 5.66465 13.3391 6.54157C13.3391 6.97627 13.1635 7.37015 12.8808 7.65612C13.2135 11.9583 16.8112 15.359 21.1975 15.359C25.5336 15.359 29.105 12.0364 29.5065 7.803C29.1245 7.51267 28.8741 7.05856 28.8741 6.54065C28.8741 5.66373 29.5855 4.95152 30.4632 4.95152C31.3417 4.95337 32.0531 5.66558 32.0531 6.5425Z" fill="#0C0701"/>
</svg>
