<svg width="48" height="48" xmlns="http://www.w3.org/2000/svg">

 <g>
  <title>background</title>
  <rect fill="none" id="canvas_background" height="402" width="582" y="-1" x="-1"/>
 </g>
 <g>
  <title>Layer 1</title>
  <path id="svg_2" fill="#bf0000" d="m41.167,7.228c-9.263,-9.481 -24.457,-9.659 -33.938,-0.396s-9.659,24.457 -0.396,33.939c9.263,9.48 24.458,9.658 33.939,0.395c9.481,-9.262 9.658,-24.457 0.395,-33.938zm-3.279,30.946c-7.885,7.703 -20.521,7.555 -28.224,-0.33c-7.704,-7.885 -7.556,-20.521 0.329,-28.224c7.885,-7.703 20.522,-7.555 28.224,0.33c7.704,7.884 7.555,20.521 -0.329,28.224z"/>
  <path id="svg_3" fill="#bf0000" d="m31.71,17.537l-1.103,-1.129c-0.825,-0.845 -1.729,-0.101 -1.951,0.108l-4.619,4.513l-4.59,-4.709c-0.336,-0.307 -1.104,-0.815 -1.9,-0.04l-1.13,1.102c-0.845,0.824 -0.103,1.729 0.106,1.952l4.511,4.629l-4.726,4.617c-0.873,0.852 -0.289,1.598 -0.104,1.793l1.264,1.295c0.177,0.172 0.9,0.768 1.773,-0.086l4.722,-4.613l4.608,4.729c0.851,0.873 1.597,0.291 1.794,0.105l1.295,-1.262c0.174,-0.176 0.769,-0.9 -0.083,-1.773l-4.611,-4.731l4.707,-4.599c0.306,-0.337 0.813,-1.106 0.037,-1.901z"/>
 </g>
</svg>